<?xml version="1.0" encoding="utf-8"?>
<!-- Generator: Adobe Illustrator 23.0.1, SVG Export Plug-In . SVG Version: 6.00 Build 0)  -->
<svg version="1.1" id="Layer_1" xmlns="http://www.w3.org/2000/svg" xmlns:xlink="http://www.w3.org/1999/xlink" x="0px" y="0px"
	 viewBox="0 0 1869.24 391.68" enable-background="new 0 0 1869.24 391.68" xml:space="preserve">
<g>
	<g>
		<path d="M858.43,196.66c-1.24-0.27-2.48-0.73-3.73-0.79c-23.79-1.02-47.59-1.9-71.38-3.06c-4.84-0.24-6.83,2.53-8.68,6.05
			c-10.78,20.44-21.46,40.94-32.43,61.28c-2.34,4.33-5.23,8.59-8.72,12.02c-6.72,6.62-16.53,5.91-21.53-2.03
			c-8.94-14.21-17.1-28.91-25.46-43.48c-3.72-6.49-7.4-13.03-10.6-19.77c-3.36-7.07-2.08-13.45,2.84-17.79
			c7.09-6.25,15.91-5.65,21.73,2.29c4,5.46,6.97,11.69,10.23,17.67c3.74,6.86,7.27,13.84,10.92,20.75c0.22,0.42,0.63,0.75,1.51,1.75
			c2.79-5.22,5.5-10.1,8.03-15.08c28.19-55.4,56.34-110.83,84.58-166.21c2.09-4.1,4.35-8.31,7.38-11.7
			c8.09-9.03,20.7-8.71,28.24,0.83c14.03,17.76,27.79,35.75,41.49,53.77c5.09,6.69,5.31,13.05,1.35,18.44
			c-5.69,7.75-14.45,9.16-21.01,2.18c-8.76-9.31-16.61-19.49-24.8-29.33c-2.54-3.05-4.94-6.21-7.39-9.29
			c-4.21,3-27,45.43-27.8,51.92c9.92,1.7,19.87,3.41,29.83,5.1c20.15,3.41,40.38,6.45,60.42,10.44c6.16,1.23,12.3,4.31,17.57,7.85
			c10.53,7.06,13.99,17.48,10.18,29.7c-6.27,20.13-13.01,40.11-19.55,60.16c-0.75,2.3-1.51,4.59-2.27,6.89
			c0.35,0.29,0.71,0.58,1.06,0.87c1.44-0.87,2.92-1.68,4.3-2.62c14.14-9.68,28.23-19.44,42.41-29.06
			c9.08-6.16,20.04-4.15,25.39,4.49c3.51,5.66,3.15,11.66-1.9,16.91c-3.42,3.56-7.53,6.52-11.58,9.39
			c-26.74,18.96-53.54,37.82-80.32,56.71c-10.1,7.13-23.76,0.99-24.47-11.93c-0.45-8.27,1.73-16.73,3.14-25.04
			c1.74-10.26,3.89-20.45,6.1-31.9c-2.15,1.38-3.42,2.01-4.45,2.9c-12.24,10.53-24.42,21.13-36.67,31.65
			c-2.74,2.35-2.53,4.99-1.82,8.13c4.69,20.74,9.43,41.47,13.75,62.29c1.81,8.71-1.86,15.77-8.42,18.34
			c-7.89,3.09-16.28,0.76-20.85-6.89c-2.74-4.59-4.46-9.97-5.74-15.21c-5.26-21.63-9.85-43.42-15.39-64.97
			c-2.36-9.17,0.17-16.16,6.67-21.94c17.52-15.62,35.28-30.97,52.96-46.41c1.85-1.62,3.79-3.13,5.68-4.69
			C858.98,197.7,858.7,197.18,858.43,196.66z"/>
		<path d="M755.1,142.78c0,18.33-15.12,33.3-33.44,33.11c-18.22-0.19-32.98-15.09-32.93-33.22c0.05-18.57,14.81-33.38,33.26-33.35
			C740.32,109.34,755.09,124.27,755.1,142.78z"/>
	</g>
	<g>
		<path fill="#F70606" d="M1173.28,239.82c0,9.84-2.39,18.26-7.18,25.27c-4.79,7.01-11.86,12.32-21.22,15.93
			c-9.36,3.61-20.75,5.42-34.15,5.42c-12.8,0-23.77-1.96-32.91-5.88c-9.14-3.92-15.89-8.82-20.24-14.69
			c-4.35-5.88-6.53-11.77-6.53-17.7c0-3.92,1.39-7.27,4.18-10.06c2.79-2.79,6.31-4.18,10.58-4.18c3.74,0,6.62,0.91,8.62,2.74
			c2,1.83,3.92,4.4,5.75,7.71c3.66,6.36,8.03,11.1,13.13,14.24c5.09,3.13,12.04,4.7,20.83,4.7c7.14,0,13-1.59,17.57-4.77
			c4.57-3.18,6.86-6.81,6.86-10.91c0-6.27-2.37-10.84-7.12-13.71c-4.75-2.87-12.56-5.62-23.44-8.23
			c-12.28-3.05-22.27-6.25-29.97-9.6c-7.71-3.35-13.87-7.77-18.48-13.26c-4.62-5.49-6.92-12.23-6.92-20.24
			c0-7.14,2.13-13.89,6.4-20.24c4.26-6.35,10.56-11.43,18.87-15.21c8.31-3.79,18.35-5.68,30.1-5.68c9.23,0,17.52,0.96,24.88,2.87
			c7.36,1.92,13.5,4.49,18.42,7.71c4.92,3.22,8.66,6.79,11.23,10.71c2.57,3.92,3.85,7.75,3.85,11.49c0,4.09-1.37,7.44-4.11,10.06
			c-2.74,2.61-6.64,3.92-11.69,3.92c-3.66,0-6.77-1.04-9.34-3.13c-2.57-2.09-5.51-5.22-8.82-9.4c-2.7-3.48-5.88-6.27-9.53-8.36
			c-3.66-2.09-8.62-3.13-14.89-3.13c-6.44,0-11.8,1.37-16.06,4.11c-4.27,2.74-6.4,6.16-6.4,10.25c0,3.74,1.57,6.81,4.7,9.21
			c3.13,2.4,7.36,4.38,12.67,5.94c5.31,1.57,12.62,3.48,21.94,5.75c11.06,2.7,20.09,5.92,27.1,9.66
			c7.01,3.75,12.32,8.16,15.93,13.26C1171.47,227.48,1173.28,233.29,1173.28,239.82z"/>
		<path fill="#F70606" d="M1218.99,163.68l23.25,79.67l21.16-74.05c2.26-7.75,3.94-13.04,5.03-15.87c1.09-2.83,3.13-5.53,6.14-8.1
			c3-2.57,7.12-3.85,12.34-3.85c5.31,0,9.47,1.29,12.47,3.85c3,2.57,5.11,5.35,6.33,8.36c1.22,3,2.92,8.21,5.09,15.61l21.16,74.05
			l23.51-79.67c1.57-5.75,2.83-9.9,3.79-12.47c0.96-2.57,2.57-4.83,4.83-6.79c2.26-1.96,5.53-2.94,9.8-2.94
			c4.26,0,7.97,1.48,11.1,4.44c3.13,2.96,4.7,6.44,4.7,10.45c0,3.66-1.35,9.19-4.05,16.59l-29.12,85.41
			c-2.53,7.23-4.49,12.45-5.88,15.67c-1.39,3.22-3.59,6.09-6.6,8.62s-7.12,3.79-12.34,3.79c-5.4,0-9.64-1.35-12.73-4.05
			c-3.09-2.7-5.38-6.01-6.86-9.93c-1.48-3.92-3.09-9.01-4.83-15.28l-20.37-69.48l-19.72,69.48c-2.61,9.66-5.44,16.96-8.49,21.88
			c-3.05,4.92-8.4,7.38-16.06,7.38c-3.92,0-7.25-0.76-9.99-2.29s-5.03-3.7-6.86-6.53c-1.83-2.83-3.44-6.18-4.83-10.06
			c-1.39-3.87-2.48-6.94-3.27-9.21l-28.86-85.41c-2.87-8.01-4.31-13.54-4.31-16.59c0-3.83,1.52-7.27,4.57-10.32
			c3.05-3.05,6.79-4.57,11.23-4.57c5.92,0,9.92,1.68,12.01,5.03C1214.42,149.86,1216.64,155.58,1218.99,163.68z"/>
		<path fill="#F70606" d="M1510.23,222.71h-69.74c0.09,8.1,1.72,15.24,4.9,21.42c3.18,6.18,7.4,10.84,12.67,13.97
			c5.27,3.13,11.08,4.7,17.43,4.7c4.27,0,8.16-0.5,11.69-1.5c3.53-1,6.94-2.57,10.25-4.7c3.31-2.13,6.35-4.42,9.14-6.86
			c2.79-2.44,6.4-5.75,10.84-9.93c1.83-1.57,4.44-2.35,7.84-2.35c3.66,0,6.62,1,8.88,3c2.26,2,3.4,4.83,3.4,8.49
			c0,3.22-1.26,6.99-3.79,11.3c-2.53,4.31-6.33,8.45-11.43,12.41c-5.09,3.96-11.49,7.25-19.2,9.86c-7.71,2.61-16.57,3.92-26.58,3.92
			c-22.9,0-40.7-6.53-53.42-19.59c-12.71-13.06-19.07-30.78-19.07-53.15c0-10.53,1.57-20.31,4.7-29.32
			c3.13-9.01,7.71-16.74,13.71-23.18c6.01-6.44,13.41-11.38,22.2-14.82c8.79-3.44,18.54-5.16,29.25-5.16
			c13.93,0,25.88,2.94,35.85,8.82c9.97,5.88,17.43,13.47,22.4,22.79c4.96,9.32,7.44,18.81,7.44,28.47c0,8.97-2.57,14.78-7.71,17.44
			C1526.77,221.38,1519.55,222.71,1510.23,222.71z M1440.49,202.47h64.65c-0.87-12.19-4.16-21.31-9.86-27.36
			c-5.7-6.05-13.21-9.08-22.53-9.08c-8.88,0-16.17,3.07-21.88,9.21C1445.17,181.37,1441.71,190.45,1440.49,202.47z"/>
		<path fill="#F70606" d="M1659.77,266.33c-8.62,6.71-16.96,11.73-25.01,15.08c-8.05,3.35-17.09,5.03-27.1,5.03
			c-9.14,0-17.17-1.81-24.1-5.42c-6.92-3.61-12.26-8.51-16-14.69c-3.75-6.18-5.62-12.88-5.62-20.11c0-9.75,3.09-18.07,9.27-24.94
			c6.18-6.88,14.67-11.49,25.47-13.84c2.26-0.52,7.88-1.7,16.85-3.53c8.97-1.83,16.65-3.5,23.05-5.03
			c6.4-1.52,13.34-3.37,20.83-5.55c-0.44-9.4-2.33-16.3-5.68-20.7c-3.35-4.4-10.3-6.6-20.83-6.6c-9.06,0-15.87,1.26-20.44,3.79
			c-4.57,2.53-8.49,6.31-11.75,11.36c-3.27,5.05-5.57,8.38-6.92,9.99c-1.35,1.61-4.25,2.42-8.69,2.42c-4.01,0-7.47-1.28-10.38-3.85
			c-2.92-2.57-4.38-5.85-4.38-9.86c0-6.27,2.22-12.36,6.66-18.28c4.44-5.92,11.36-10.79,20.77-14.63c9.4-3.83,21.11-5.75,35.13-5.75
			c15.67,0,27.99,1.85,36.96,5.55c8.97,3.7,15.3,9.56,19,17.57c3.7,8.01,5.55,18.63,5.55,31.87c0,8.36-0.02,15.46-0.07,21.29
			c-0.04,5.83-0.11,12.32-0.2,19.46c0,6.71,1.11,13.69,3.33,20.96c2.22,7.27,3.33,11.95,3.33,14.04c0,3.66-1.72,6.99-5.16,9.99
			c-3.44,3-7.34,4.5-11.69,4.5c-3.66,0-7.27-1.72-10.84-5.16C1667.56,277.85,1663.77,272.86,1659.77,266.33z M1657.42,214.74
			c-5.22,1.92-12.82,3.94-22.79,6.07c-9.97,2.13-16.87,3.7-20.7,4.7c-3.83,1-7.49,2.96-10.97,5.88c-3.48,2.92-5.22,6.99-5.22,12.21
			c0,5.4,2.04,9.99,6.14,13.78c4.09,3.79,9.45,5.68,16.06,5.68c7.05,0,13.56-1.54,19.52-4.64c5.96-3.09,10.34-7.07,13.13-11.95
			c3.22-5.4,4.83-14.28,4.83-26.64V214.74z"/>
		<path fill="#F70606" d="M1723.89,144.61h3.92v-21.42c0-5.75,0.15-10.25,0.46-13.52c0.3-3.27,1.15-6.07,2.55-8.42
			c1.39-2.44,3.4-4.42,6.01-5.94c2.61-1.52,5.53-2.29,8.75-2.29c4.53,0,8.62,1.7,12.28,5.09c2.44,2.27,3.98,5.03,4.64,8.29
			c0.65,3.27,0.98,7.9,0.98,13.91v24.29h13.06c5.05,0,8.9,1.2,11.56,3.59c2.65,2.4,3.98,5.46,3.98,9.21c0,4.79-1.89,8.14-5.68,10.06
			c-3.79,1.92-9.21,2.87-16.26,2.87h-6.66v65.56c0,5.57,0.2,9.86,0.59,12.86s1.44,5.44,3.13,7.31c1.7,1.87,4.46,2.81,8.29,2.81
			c2.09,0,4.92-0.37,8.49-1.11c3.57-0.74,6.35-1.11,8.36-1.11c2.87,0,5.46,1.15,7.77,3.46c2.31,2.31,3.46,5.16,3.46,8.55
			c0,5.75-3.13,10.14-9.4,13.19c-6.27,3.05-15.28,4.57-27.03,4.57c-11.15,0-19.59-1.87-25.34-5.62c-5.75-3.74-9.51-8.92-11.3-15.54
			c-1.79-6.62-2.68-15.45-2.68-26.51v-68.43h-4.7c-5.14,0-9.06-1.22-11.75-3.66c-2.7-2.44-4.05-5.53-4.05-9.27
			c0-3.74,1.41-6.81,4.25-9.21C1714.38,145.81,1718.49,144.61,1723.89,144.61z"/>
	</g>
	<g>
		<path fill="#F70606" d="M84.13,264.76V110.13c0-7.14,1.59-12.54,4.77-16.19c3.18-3.66,7.46-5.49,12.86-5.49
			c5.4,0,9.75,1.81,13.06,5.42c3.31,3.61,4.96,9.03,4.96,16.26v154.63c0,7.23-1.68,12.65-5.03,16.26
			c-3.35,3.61-7.69,5.42-12.99,5.42c-5.22,0-9.47-1.87-12.73-5.62C85.76,277.08,84.13,271.73,84.13,264.76z"/>
		<path fill="#F70606" d="M256.13,222.71h-69.74c0.09,8.1,1.72,15.24,4.9,21.42c3.18,6.18,7.4,10.84,12.67,13.97
			c5.27,3.13,11.08,4.7,17.44,4.7c4.26,0,8.16-0.5,11.69-1.5c3.53-1,6.94-2.57,10.25-4.7c3.31-2.13,6.35-4.42,9.14-6.86
			c2.79-2.44,6.4-5.75,10.84-9.93c1.83-1.57,4.44-2.35,7.84-2.35c3.66,0,6.62,1,8.88,3c2.26,2,3.4,4.83,3.4,8.49
			c0,3.22-1.26,6.99-3.79,11.3c-2.53,4.31-6.33,8.45-11.43,12.41c-5.09,3.96-11.49,7.25-19.2,9.86c-7.71,2.61-16.57,3.92-26.58,3.92
			c-22.9,0-40.7-6.53-53.42-19.59c-12.71-13.06-19.07-30.78-19.07-53.15c0-10.53,1.57-20.31,4.7-29.32
			c3.13-9.01,7.71-16.74,13.71-23.18c6.01-6.44,13.41-11.38,22.2-14.82c8.79-3.44,18.54-5.16,29.25-5.16
			c13.93,0,25.88,2.94,35.85,8.82c9.97,5.88,17.44,13.47,22.4,22.79c4.96,9.32,7.44,18.81,7.44,28.47c0,8.97-2.57,14.78-7.71,17.44
			C272.67,221.38,265.45,222.71,256.13,222.71z M186.39,202.47h64.65c-0.87-12.19-4.16-21.31-9.86-27.36
			c-5.7-6.05-13.21-9.08-22.53-9.08c-8.88,0-16.17,3.07-21.88,9.21C191.07,181.37,187.61,190.45,186.39,202.47z"/>
		<path fill="#F70606" d="M317.51,144.61h3.92v-21.42c0-5.75,0.15-10.25,0.46-13.52c0.3-3.26,1.15-6.07,2.55-8.42
			c1.39-2.44,3.4-4.42,6.01-5.94c2.61-1.52,5.53-2.29,8.75-2.29c4.53,0,8.62,1.7,12.28,5.09c2.44,2.27,3.98,5.03,4.64,8.29
			c0.65,3.26,0.98,7.9,0.98,13.91v24.29h13.06c5.05,0,8.9,1.2,11.56,3.59c2.65,2.4,3.98,5.46,3.98,9.21c0,4.79-1.89,8.14-5.68,10.06
			c-3.79,1.92-9.21,2.87-16.26,2.87h-6.66v65.56c0,5.57,0.2,9.86,0.59,12.86c0.39,3,1.44,5.44,3.13,7.31
			c1.7,1.87,4.46,2.81,8.29,2.81c2.09,0,4.92-0.37,8.49-1.11c3.57-0.74,6.35-1.11,8.36-1.11c2.87,0,5.46,1.15,7.77,3.46
			c2.31,2.31,3.46,5.16,3.46,8.55c0,5.75-3.13,10.14-9.4,13.19c-6.27,3.05-15.28,4.57-27.03,4.57c-11.15,0-19.59-1.87-25.34-5.62
			c-5.75-3.74-9.51-8.92-11.3-15.54c-1.79-6.62-2.68-15.45-2.68-26.51v-68.43h-4.7c-5.14,0-9.06-1.22-11.75-3.66
			c-2.7-2.44-4.05-5.53-4.05-9.27c0-3.74,1.41-6.81,4.24-9.21C308,145.81,312.11,144.61,317.51,144.61z"/>
		<path fill="#F70606" d="M441.06,128.02h-1.96c-4.88,0-9.29-1.98-13.26-5.94c-3.96-3.96-5.94-8.64-5.94-14.04
			c0-5.57,1.98-10.23,5.94-13.97c3.96-3.74,8.86-5.62,14.69-5.62c4,0,7.75,1.16,11.23,3.46c3.48,2.31,6.18,5.66,8.1,10.06
			c1.91,4.4,2.87,9.77,2.87,16.13c0,8.62-1.83,16.7-5.48,24.23c-3.66,7.53-8.12,13.5-13.39,17.89c-5.27,4.4-10.04,6.59-14.3,6.59
			c-2.7,0-4.9-0.85-6.6-2.55c-1.7-1.7-2.55-3.76-2.55-6.2c0-3.92,1.78-6.79,5.35-8.62c4.61-2.7,8.23-5.66,10.84-8.88
			C439.23,137.34,440.71,133.16,441.06,128.02z"/>
		<path fill="#F70606" d="M605.23,239.82c0,9.84-2.4,18.26-7.18,25.27c-4.79,7.01-11.86,12.32-21.22,15.93
			c-9.36,3.61-20.75,5.42-34.15,5.42c-12.8,0-23.77-1.96-32.91-5.88s-15.89-8.82-20.24-14.69c-4.35-5.88-6.53-11.77-6.53-17.7
			c0-3.92,1.39-7.27,4.18-10.06c2.79-2.79,6.31-4.18,10.58-4.18c3.74,0,6.62,0.91,8.62,2.74c2,1.83,3.92,4.4,5.75,7.71
			c3.66,6.36,8.03,11.1,13.13,14.24c5.09,3.13,12.04,4.7,20.83,4.7c7.14,0,12.99-1.59,17.57-4.77c4.57-3.18,6.86-6.81,6.86-10.91
			c0-6.27-2.37-10.84-7.12-13.71c-4.75-2.87-12.56-5.62-23.44-8.23c-12.28-3.05-22.27-6.25-29.97-9.6
			c-7.71-3.35-13.87-7.77-18.48-13.26c-4.62-5.49-6.92-12.23-6.92-20.24c0-7.14,2.13-13.89,6.4-20.24
			c4.27-6.35,10.56-11.43,18.87-15.21c8.31-3.79,18.35-5.68,30.1-5.68c9.23,0,17.52,0.96,24.88,2.87
			c7.36,1.92,13.49,4.49,18.41,7.71c4.92,3.22,8.66,6.79,11.23,10.71c2.57,3.92,3.85,7.75,3.85,11.49c0,4.09-1.37,7.44-4.11,10.06
			c-2.74,2.61-6.64,3.92-11.69,3.92c-3.66,0-6.77-1.04-9.34-3.13c-2.57-2.09-5.51-5.22-8.82-9.4c-2.7-3.48-5.88-6.27-9.53-8.36
			s-8.62-3.13-14.89-3.13c-6.44,0-11.8,1.37-16.06,4.11c-4.27,2.74-6.4,6.16-6.4,10.25c0,3.75,1.57,6.81,4.7,9.21
			c3.13,2.4,7.36,4.38,12.67,5.94c5.31,1.57,12.62,3.48,21.94,5.75c11.06,2.7,20.09,5.92,27.1,9.66
			c7.01,3.75,12.32,8.16,15.93,13.26C603.42,227.48,605.23,233.29,605.23,239.82z"/>
	</g>
</g>
<image src="./image/logo.png" xlink:href="null" />
</svg>
